<svg xmlns="http://www.w3.org/2000/svg" viewBox="0 0 200 200" role="img" aria-label="AlexArts">
  <defs>
    <linearGradient id="bg" x1="0" y1="0" x2="1" y2="1">
      <stop offset="0%" stop-color="#E5F4FF"/>
      <stop offset="55%" stop-color="#FFECD9"/>
      <stop offset="100%" stop-color="#E3F5E8"/>
    </linearGradient>
  </defs>
  <circle cx="100" cy="100" r="100" fill="url(#bg)"/>
  <circle cx="100" cy="100" r="86" fill="#FFFEFA" stroke="#DDDCD5" stroke-width="2"/>
  <circle cx="100" cy="78" r="28" fill="#FFE3DD" stroke="#F38C7A" stroke-width="2"/>
  <path d="M58 148c8-24 24-38 42-38s34 14 42 38" fill="#E5F4FF" stroke="#247EAA" stroke-width="2" stroke-linecap="round"/>
  <path d="M132 54c10 2 18 12 16 22-8 4-18 2-24-6 2-8 4-14 8-16z" fill="#8CCFA0" stroke="#356F46" stroke-width="1.5"/>
  <path d="M128 68c8 6 10 14 6 20" fill="none" stroke="#356F46" stroke-width="1.5" stroke-linecap="round"/>
  <rect x="138" y="108" width="10" height="42" rx="3" transform="rotate(28 143 129)" fill="#F5CF58" stroke="#8B6812" stroke-width="1.5"/>
  <polygon points="143,100 149,112 137,112" transform="rotate(28 143 129)" fill="#202124"/>
  <circle cx="74" cy="118" r="3.5" fill="#75C9F5"/>
  <circle cx="86" cy="128" r="2.5" fill="#B9A7EA"/>
  <circle cx="66" cy="130" r="2" fill="#F38C7A"/>
</svg>
